<mxfile host="Electron" agent="Mozilla/5.0 (Windows NT 10.0; Win64; x64) AppleWebKit/537.36 (KHTML, like Gecko) draw.io/26.0.16 Chrome/132.0.6834.196 Electron/34.2.0 Safari/537.36" version="26.0.16">
  <diagram name="Page-1" id="Vl2OY6eKXPkRbwLgLIql">
    <mxGraphModel dx="1050" dy="621" grid="1" gridSize="10" guides="1" tooltips="1" connect="1" arrows="1" fold="1" page="1" pageScale="1" pageWidth="850" pageHeight="1100" math="0" shadow="0">
      <root>
        <mxCell id="0" />
        <mxCell id="1" parent="0" />
        <mxCell id="BXHwt35HYGlDsFWXdQw4-2" value="&lt;font style=&quot;&quot;&gt;&lt;span style=&quot;font-weight: bold; font-size: 30px;&quot;&gt;Data Mart &lt;/span&gt;&lt;font style=&quot;font-size: 20px;&quot;&gt;(Star Schema)&lt;/font&gt;&lt;/font&gt;" style="text;html=1;align=center;verticalAlign=middle;whiteSpace=wrap;rounded=0;" vertex="1" parent="1">
          <mxGeometry x="50" y="10" width="300" height="30" as="geometry" />
        </mxCell>
        <mxCell id="BXHwt35HYGlDsFWXdQw4-3" value="gold.dim_customers" style="shape=table;startSize=30;container=1;collapsible=1;childLayout=tableLayout;fixedRows=1;rowLines=0;fontStyle=1;align=center;resizeLast=1;html=1;rounded=1;fillColor=#fff2cc;strokeColor=#d6b656;fontSize=16;" vertex="1" parent="1">
          <mxGeometry x="40" y="80" width="180" height="420" as="geometry" />
        </mxCell>
        <mxCell id="BXHwt35HYGlDsFWXdQw4-4" value="" style="shape=tableRow;horizontal=0;startSize=0;swimlaneHead=0;swimlaneBody=0;fillColor=none;collapsible=0;dropTarget=0;points=[[0,0.5],[1,0.5]];portConstraint=eastwest;top=0;left=0;right=0;bottom=1;fontSize=16;" vertex="1" parent="BXHwt35HYGlDsFWXdQw4-3">
          <mxGeometry y="30" width="180" height="39" as="geometry" />
        </mxCell>
        <mxCell id="BXHwt35HYGlDsFWXdQw4-5" value="PK" style="shape=partialRectangle;connectable=0;fillColor=none;top=0;left=0;bottom=0;right=0;fontStyle=1;overflow=hidden;whiteSpace=wrap;html=1;fontSize=16;" vertex="1" parent="BXHwt35HYGlDsFWXdQw4-4">
          <mxGeometry width="30" height="39" as="geometry">
            <mxRectangle width="30" height="39" as="alternateBounds" />
          </mxGeometry>
        </mxCell>
        <mxCell id="BXHwt35HYGlDsFWXdQw4-6" value="&lt;span style=&quot;background-color: rgb(204, 204, 204);&quot;&gt;customer_key&lt;/span&gt;" style="shape=partialRectangle;connectable=0;fillColor=none;top=0;left=0;bottom=0;right=0;align=left;spacingLeft=6;fontStyle=5;overflow=hidden;whiteSpace=wrap;html=1;fontSize=16;" vertex="1" parent="BXHwt35HYGlDsFWXdQw4-4">
          <mxGeometry x="30" width="150" height="39" as="geometry">
            <mxRectangle width="150" height="39" as="alternateBounds" />
          </mxGeometry>
        </mxCell>
        <mxCell id="BXHwt35HYGlDsFWXdQw4-7" value="" style="shape=tableRow;horizontal=0;startSize=0;swimlaneHead=0;swimlaneBody=0;fillColor=none;collapsible=0;dropTarget=0;points=[[0,0.5],[1,0.5]];portConstraint=eastwest;top=0;left=0;right=0;bottom=0;fontSize=16;" vertex="1" parent="BXHwt35HYGlDsFWXdQw4-3">
          <mxGeometry y="69" width="180" height="39" as="geometry" />
        </mxCell>
        <mxCell id="BXHwt35HYGlDsFWXdQw4-8" value="" style="shape=partialRectangle;connectable=0;fillColor=none;top=0;left=0;bottom=0;right=0;editable=1;overflow=hidden;whiteSpace=wrap;html=1;fontSize=16;" vertex="1" parent="BXHwt35HYGlDsFWXdQw4-7">
          <mxGeometry width="30" height="39" as="geometry">
            <mxRectangle width="30" height="39" as="alternateBounds" />
          </mxGeometry>
        </mxCell>
        <mxCell id="BXHwt35HYGlDsFWXdQw4-9" value="customer_id" style="shape=partialRectangle;connectable=0;fillColor=none;top=0;left=0;bottom=0;right=0;align=left;spacingLeft=6;overflow=hidden;whiteSpace=wrap;html=1;fontSize=16;" vertex="1" parent="BXHwt35HYGlDsFWXdQw4-7">
          <mxGeometry x="30" width="150" height="39" as="geometry">
            <mxRectangle width="150" height="39" as="alternateBounds" />
          </mxGeometry>
        </mxCell>
        <mxCell id="BXHwt35HYGlDsFWXdQw4-10" value="" style="shape=tableRow;horizontal=0;startSize=0;swimlaneHead=0;swimlaneBody=0;fillColor=none;collapsible=0;dropTarget=0;points=[[0,0.5],[1,0.5]];portConstraint=eastwest;top=0;left=0;right=0;bottom=0;fontSize=16;" vertex="1" parent="BXHwt35HYGlDsFWXdQw4-3">
          <mxGeometry y="108" width="180" height="39" as="geometry" />
        </mxCell>
        <mxCell id="BXHwt35HYGlDsFWXdQw4-11" value="" style="shape=partialRectangle;connectable=0;fillColor=none;top=0;left=0;bottom=0;right=0;editable=1;overflow=hidden;whiteSpace=wrap;html=1;fontSize=16;" vertex="1" parent="BXHwt35HYGlDsFWXdQw4-10">
          <mxGeometry width="30" height="39" as="geometry">
            <mxRectangle width="30" height="39" as="alternateBounds" />
          </mxGeometry>
        </mxCell>
        <mxCell id="BXHwt35HYGlDsFWXdQw4-12" value="customer_number" style="shape=partialRectangle;connectable=0;fillColor=none;top=0;left=0;bottom=0;right=0;align=left;spacingLeft=6;overflow=hidden;whiteSpace=wrap;html=1;fontSize=16;" vertex="1" parent="BXHwt35HYGlDsFWXdQw4-10">
          <mxGeometry x="30" width="150" height="39" as="geometry">
            <mxRectangle width="150" height="39" as="alternateBounds" />
          </mxGeometry>
        </mxCell>
        <mxCell id="BXHwt35HYGlDsFWXdQw4-13" value="" style="shape=tableRow;horizontal=0;startSize=0;swimlaneHead=0;swimlaneBody=0;fillColor=none;collapsible=0;dropTarget=0;points=[[0,0.5],[1,0.5]];portConstraint=eastwest;top=0;left=0;right=0;bottom=0;fontSize=16;" vertex="1" parent="BXHwt35HYGlDsFWXdQw4-3">
          <mxGeometry y="147" width="180" height="39" as="geometry" />
        </mxCell>
        <mxCell id="BXHwt35HYGlDsFWXdQw4-14" value="" style="shape=partialRectangle;connectable=0;fillColor=none;top=0;left=0;bottom=0;right=0;editable=1;overflow=hidden;whiteSpace=wrap;html=1;fontSize=16;" vertex="1" parent="BXHwt35HYGlDsFWXdQw4-13">
          <mxGeometry width="30" height="39" as="geometry">
            <mxRectangle width="30" height="39" as="alternateBounds" />
          </mxGeometry>
        </mxCell>
        <mxCell id="BXHwt35HYGlDsFWXdQw4-15" value="first_name" style="shape=partialRectangle;connectable=0;fillColor=none;top=0;left=0;bottom=0;right=0;align=left;spacingLeft=6;overflow=hidden;whiteSpace=wrap;html=1;fontSize=16;" vertex="1" parent="BXHwt35HYGlDsFWXdQw4-13">
          <mxGeometry x="30" width="150" height="39" as="geometry">
            <mxRectangle width="150" height="39" as="alternateBounds" />
          </mxGeometry>
        </mxCell>
        <mxCell id="BXHwt35HYGlDsFWXdQw4-16" value="" style="shape=tableRow;horizontal=0;startSize=0;swimlaneHead=0;swimlaneBody=0;fillColor=none;collapsible=0;dropTarget=0;points=[[0,0.5],[1,0.5]];portConstraint=eastwest;top=0;left=0;right=0;bottom=0;fontSize=16;" vertex="1" parent="BXHwt35HYGlDsFWXdQw4-3">
          <mxGeometry y="186" width="180" height="39" as="geometry" />
        </mxCell>
        <mxCell id="BXHwt35HYGlDsFWXdQw4-17" value="" style="shape=partialRectangle;connectable=0;fillColor=none;top=0;left=0;bottom=0;right=0;editable=1;overflow=hidden;whiteSpace=wrap;html=1;fontSize=16;" vertex="1" parent="BXHwt35HYGlDsFWXdQw4-16">
          <mxGeometry width="30" height="39" as="geometry">
            <mxRectangle width="30" height="39" as="alternateBounds" />
          </mxGeometry>
        </mxCell>
        <mxCell id="BXHwt35HYGlDsFWXdQw4-18" value="last_name" style="shape=partialRectangle;connectable=0;fillColor=none;top=0;left=0;bottom=0;right=0;align=left;spacingLeft=6;overflow=hidden;whiteSpace=wrap;html=1;fontSize=16;" vertex="1" parent="BXHwt35HYGlDsFWXdQw4-16">
          <mxGeometry x="30" width="150" height="39" as="geometry">
            <mxRectangle width="150" height="39" as="alternateBounds" />
          </mxGeometry>
        </mxCell>
        <mxCell id="BXHwt35HYGlDsFWXdQw4-19" value="" style="shape=tableRow;horizontal=0;startSize=0;swimlaneHead=0;swimlaneBody=0;fillColor=none;collapsible=0;dropTarget=0;points=[[0,0.5],[1,0.5]];portConstraint=eastwest;top=0;left=0;right=0;bottom=0;fontSize=16;" vertex="1" parent="BXHwt35HYGlDsFWXdQw4-3">
          <mxGeometry y="225" width="180" height="39" as="geometry" />
        </mxCell>
        <mxCell id="BXHwt35HYGlDsFWXdQw4-20" value="" style="shape=partialRectangle;connectable=0;fillColor=none;top=0;left=0;bottom=0;right=0;editable=1;overflow=hidden;whiteSpace=wrap;html=1;fontSize=16;" vertex="1" parent="BXHwt35HYGlDsFWXdQw4-19">
          <mxGeometry width="30" height="39" as="geometry">
            <mxRectangle width="30" height="39" as="alternateBounds" />
          </mxGeometry>
        </mxCell>
        <mxCell id="BXHwt35HYGlDsFWXdQw4-21" value="gender" style="shape=partialRectangle;connectable=0;fillColor=none;top=0;left=0;bottom=0;right=0;align=left;spacingLeft=6;overflow=hidden;whiteSpace=wrap;html=1;fontSize=16;" vertex="1" parent="BXHwt35HYGlDsFWXdQw4-19">
          <mxGeometry x="30" width="150" height="39" as="geometry">
            <mxRectangle width="150" height="39" as="alternateBounds" />
          </mxGeometry>
        </mxCell>
        <mxCell id="BXHwt35HYGlDsFWXdQw4-22" value="" style="shape=tableRow;horizontal=0;startSize=0;swimlaneHead=0;swimlaneBody=0;fillColor=none;collapsible=0;dropTarget=0;points=[[0,0.5],[1,0.5]];portConstraint=eastwest;top=0;left=0;right=0;bottom=0;fontSize=16;" vertex="1" parent="BXHwt35HYGlDsFWXdQw4-3">
          <mxGeometry y="264" width="180" height="39" as="geometry" />
        </mxCell>
        <mxCell id="BXHwt35HYGlDsFWXdQw4-23" value="" style="shape=partialRectangle;connectable=0;fillColor=none;top=0;left=0;bottom=0;right=0;editable=1;overflow=hidden;whiteSpace=wrap;html=1;fontSize=16;" vertex="1" parent="BXHwt35HYGlDsFWXdQw4-22">
          <mxGeometry width="30" height="39" as="geometry">
            <mxRectangle width="30" height="39" as="alternateBounds" />
          </mxGeometry>
        </mxCell>
        <mxCell id="BXHwt35HYGlDsFWXdQw4-24" value="marital_status" style="shape=partialRectangle;connectable=0;fillColor=none;top=0;left=0;bottom=0;right=0;align=left;spacingLeft=6;overflow=hidden;whiteSpace=wrap;html=1;fontSize=16;" vertex="1" parent="BXHwt35HYGlDsFWXdQw4-22">
          <mxGeometry x="30" width="150" height="39" as="geometry">
            <mxRectangle width="150" height="39" as="alternateBounds" />
          </mxGeometry>
        </mxCell>
        <mxCell id="BXHwt35HYGlDsFWXdQw4-25" value="" style="shape=tableRow;horizontal=0;startSize=0;swimlaneHead=0;swimlaneBody=0;fillColor=none;collapsible=0;dropTarget=0;points=[[0,0.5],[1,0.5]];portConstraint=eastwest;top=0;left=0;right=0;bottom=0;fontSize=16;" vertex="1" parent="BXHwt35HYGlDsFWXdQw4-3">
          <mxGeometry y="303" width="180" height="39" as="geometry" />
        </mxCell>
        <mxCell id="BXHwt35HYGlDsFWXdQw4-26" value="" style="shape=partialRectangle;connectable=0;fillColor=none;top=0;left=0;bottom=0;right=0;editable=1;overflow=hidden;whiteSpace=wrap;html=1;fontSize=16;" vertex="1" parent="BXHwt35HYGlDsFWXdQw4-25">
          <mxGeometry width="30" height="39" as="geometry">
            <mxRectangle width="30" height="39" as="alternateBounds" />
          </mxGeometry>
        </mxCell>
        <mxCell id="BXHwt35HYGlDsFWXdQw4-27" value="country" style="shape=partialRectangle;connectable=0;fillColor=none;top=0;left=0;bottom=0;right=0;align=left;spacingLeft=6;overflow=hidden;whiteSpace=wrap;html=1;fontSize=16;" vertex="1" parent="BXHwt35HYGlDsFWXdQw4-25">
          <mxGeometry x="30" width="150" height="39" as="geometry">
            <mxRectangle width="150" height="39" as="alternateBounds" />
          </mxGeometry>
        </mxCell>
        <mxCell id="BXHwt35HYGlDsFWXdQw4-28" value="" style="shape=tableRow;horizontal=0;startSize=0;swimlaneHead=0;swimlaneBody=0;fillColor=none;collapsible=0;dropTarget=0;points=[[0,0.5],[1,0.5]];portConstraint=eastwest;top=0;left=0;right=0;bottom=0;fontSize=16;" vertex="1" parent="BXHwt35HYGlDsFWXdQw4-3">
          <mxGeometry y="342" width="180" height="39" as="geometry" />
        </mxCell>
        <mxCell id="BXHwt35HYGlDsFWXdQw4-29" value="" style="shape=partialRectangle;connectable=0;fillColor=none;top=0;left=0;bottom=0;right=0;editable=1;overflow=hidden;whiteSpace=wrap;html=1;fontSize=16;" vertex="1" parent="BXHwt35HYGlDsFWXdQw4-28">
          <mxGeometry width="30" height="39" as="geometry">
            <mxRectangle width="30" height="39" as="alternateBounds" />
          </mxGeometry>
        </mxCell>
        <mxCell id="BXHwt35HYGlDsFWXdQw4-30" value="birthdate" style="shape=partialRectangle;connectable=0;fillColor=none;top=0;left=0;bottom=0;right=0;align=left;spacingLeft=6;overflow=hidden;whiteSpace=wrap;html=1;fontSize=16;" vertex="1" parent="BXHwt35HYGlDsFWXdQw4-28">
          <mxGeometry x="30" width="150" height="39" as="geometry">
            <mxRectangle width="150" height="39" as="alternateBounds" />
          </mxGeometry>
        </mxCell>
        <mxCell id="BXHwt35HYGlDsFWXdQw4-31" value="" style="shape=tableRow;horizontal=0;startSize=0;swimlaneHead=0;swimlaneBody=0;fillColor=none;collapsible=0;dropTarget=0;points=[[0,0.5],[1,0.5]];portConstraint=eastwest;top=0;left=0;right=0;bottom=0;fontSize=16;" vertex="1" parent="BXHwt35HYGlDsFWXdQw4-3">
          <mxGeometry y="381" width="180" height="39" as="geometry" />
        </mxCell>
        <mxCell id="BXHwt35HYGlDsFWXdQw4-32" value="" style="shape=partialRectangle;connectable=0;fillColor=none;top=0;left=0;bottom=0;right=0;editable=1;overflow=hidden;whiteSpace=wrap;html=1;fontSize=16;" vertex="1" parent="BXHwt35HYGlDsFWXdQw4-31">
          <mxGeometry width="30" height="39" as="geometry">
            <mxRectangle width="30" height="39" as="alternateBounds" />
          </mxGeometry>
        </mxCell>
        <mxCell id="BXHwt35HYGlDsFWXdQw4-33" value="create_date" style="shape=partialRectangle;connectable=0;fillColor=none;top=0;left=0;bottom=0;right=0;align=left;spacingLeft=6;overflow=hidden;whiteSpace=wrap;html=1;fontSize=16;" vertex="1" parent="BXHwt35HYGlDsFWXdQw4-31">
          <mxGeometry x="30" width="150" height="39" as="geometry">
            <mxRectangle width="150" height="39" as="alternateBounds" />
          </mxGeometry>
        </mxCell>
        <mxCell id="BXHwt35HYGlDsFWXdQw4-34" value="gold.dim_products" style="shape=table;startSize=30;container=1;collapsible=1;childLayout=tableLayout;fixedRows=1;rowLines=0;fontStyle=1;align=center;resizeLast=1;html=1;rounded=1;fillColor=#fff2cc;strokeColor=#d6b656;fontSize=16;" vertex="1" parent="1">
          <mxGeometry x="620" y="80" width="180" height="459" as="geometry" />
        </mxCell>
        <mxCell id="BXHwt35HYGlDsFWXdQw4-35" value="" style="shape=tableRow;horizontal=0;startSize=0;swimlaneHead=0;swimlaneBody=0;fillColor=none;collapsible=0;dropTarget=0;points=[[0,0.5],[1,0.5]];portConstraint=eastwest;top=0;left=0;right=0;bottom=1;fontSize=16;" vertex="1" parent="BXHwt35HYGlDsFWXdQw4-34">
          <mxGeometry y="30" width="180" height="39" as="geometry" />
        </mxCell>
        <mxCell id="BXHwt35HYGlDsFWXdQw4-36" value="PK" style="shape=partialRectangle;connectable=0;fillColor=none;top=0;left=0;bottom=0;right=0;fontStyle=1;overflow=hidden;whiteSpace=wrap;html=1;fontSize=16;" vertex="1" parent="BXHwt35HYGlDsFWXdQw4-35">
          <mxGeometry width="30" height="39" as="geometry">
            <mxRectangle width="30" height="39" as="alternateBounds" />
          </mxGeometry>
        </mxCell>
        <mxCell id="BXHwt35HYGlDsFWXdQw4-37" value="&lt;span style=&quot;background-color: rgb(204, 204, 204);&quot;&gt;product_key&lt;/span&gt;" style="shape=partialRectangle;connectable=0;fillColor=none;top=0;left=0;bottom=0;right=0;align=left;spacingLeft=6;fontStyle=5;overflow=hidden;whiteSpace=wrap;html=1;fontSize=16;gradientColor=#b3b3b3;strokeColor=#666666;" vertex="1" parent="BXHwt35HYGlDsFWXdQw4-35">
          <mxGeometry x="30" width="150" height="39" as="geometry">
            <mxRectangle width="150" height="39" as="alternateBounds" />
          </mxGeometry>
        </mxCell>
        <mxCell id="BXHwt35HYGlDsFWXdQw4-38" value="" style="shape=tableRow;horizontal=0;startSize=0;swimlaneHead=0;swimlaneBody=0;fillColor=none;collapsible=0;dropTarget=0;points=[[0,0.5],[1,0.5]];portConstraint=eastwest;top=0;left=0;right=0;bottom=0;fontSize=16;" vertex="1" parent="BXHwt35HYGlDsFWXdQw4-34">
          <mxGeometry y="69" width="180" height="39" as="geometry" />
        </mxCell>
        <mxCell id="BXHwt35HYGlDsFWXdQw4-39" value="" style="shape=partialRectangle;connectable=0;fillColor=none;top=0;left=0;bottom=0;right=0;editable=1;overflow=hidden;whiteSpace=wrap;html=1;fontSize=16;" vertex="1" parent="BXHwt35HYGlDsFWXdQw4-38">
          <mxGeometry width="30" height="39" as="geometry">
            <mxRectangle width="30" height="39" as="alternateBounds" />
          </mxGeometry>
        </mxCell>
        <mxCell id="BXHwt35HYGlDsFWXdQw4-40" value="product_id" style="shape=partialRectangle;connectable=0;fillColor=none;top=0;left=0;bottom=0;right=0;align=left;spacingLeft=6;overflow=hidden;whiteSpace=wrap;html=1;fontSize=16;" vertex="1" parent="BXHwt35HYGlDsFWXdQw4-38">
          <mxGeometry x="30" width="150" height="39" as="geometry">
            <mxRectangle width="150" height="39" as="alternateBounds" />
          </mxGeometry>
        </mxCell>
        <mxCell id="BXHwt35HYGlDsFWXdQw4-41" value="" style="shape=tableRow;horizontal=0;startSize=0;swimlaneHead=0;swimlaneBody=0;fillColor=none;collapsible=0;dropTarget=0;points=[[0,0.5],[1,0.5]];portConstraint=eastwest;top=0;left=0;right=0;bottom=0;fontSize=16;" vertex="1" parent="BXHwt35HYGlDsFWXdQw4-34">
          <mxGeometry y="108" width="180" height="39" as="geometry" />
        </mxCell>
        <mxCell id="BXHwt35HYGlDsFWXdQw4-42" value="" style="shape=partialRectangle;connectable=0;fillColor=none;top=0;left=0;bottom=0;right=0;editable=1;overflow=hidden;whiteSpace=wrap;html=1;fontSize=16;" vertex="1" parent="BXHwt35HYGlDsFWXdQw4-41">
          <mxGeometry width="30" height="39" as="geometry">
            <mxRectangle width="30" height="39" as="alternateBounds" />
          </mxGeometry>
        </mxCell>
        <mxCell id="BXHwt35HYGlDsFWXdQw4-43" value="product_number" style="shape=partialRectangle;connectable=0;fillColor=none;top=0;left=0;bottom=0;right=0;align=left;spacingLeft=6;overflow=hidden;whiteSpace=wrap;html=1;fontSize=16;" vertex="1" parent="BXHwt35HYGlDsFWXdQw4-41">
          <mxGeometry x="30" width="150" height="39" as="geometry">
            <mxRectangle width="150" height="39" as="alternateBounds" />
          </mxGeometry>
        </mxCell>
        <mxCell id="BXHwt35HYGlDsFWXdQw4-44" value="" style="shape=tableRow;horizontal=0;startSize=0;swimlaneHead=0;swimlaneBody=0;fillColor=none;collapsible=0;dropTarget=0;points=[[0,0.5],[1,0.5]];portConstraint=eastwest;top=0;left=0;right=0;bottom=0;fontSize=16;" vertex="1" parent="BXHwt35HYGlDsFWXdQw4-34">
          <mxGeometry y="147" width="180" height="39" as="geometry" />
        </mxCell>
        <mxCell id="BXHwt35HYGlDsFWXdQw4-45" value="" style="shape=partialRectangle;connectable=0;fillColor=none;top=0;left=0;bottom=0;right=0;editable=1;overflow=hidden;whiteSpace=wrap;html=1;fontSize=16;" vertex="1" parent="BXHwt35HYGlDsFWXdQw4-44">
          <mxGeometry width="30" height="39" as="geometry">
            <mxRectangle width="30" height="39" as="alternateBounds" />
          </mxGeometry>
        </mxCell>
        <mxCell id="BXHwt35HYGlDsFWXdQw4-46" value="product_name" style="shape=partialRectangle;connectable=0;fillColor=none;top=0;left=0;bottom=0;right=0;align=left;spacingLeft=6;overflow=hidden;whiteSpace=wrap;html=1;fontSize=16;" vertex="1" parent="BXHwt35HYGlDsFWXdQw4-44">
          <mxGeometry x="30" width="150" height="39" as="geometry">
            <mxRectangle width="150" height="39" as="alternateBounds" />
          </mxGeometry>
        </mxCell>
        <mxCell id="BXHwt35HYGlDsFWXdQw4-47" value="" style="shape=tableRow;horizontal=0;startSize=0;swimlaneHead=0;swimlaneBody=0;fillColor=none;collapsible=0;dropTarget=0;points=[[0,0.5],[1,0.5]];portConstraint=eastwest;top=0;left=0;right=0;bottom=0;fontSize=16;" vertex="1" parent="BXHwt35HYGlDsFWXdQw4-34">
          <mxGeometry y="186" width="180" height="39" as="geometry" />
        </mxCell>
        <mxCell id="BXHwt35HYGlDsFWXdQw4-48" value="" style="shape=partialRectangle;connectable=0;fillColor=none;top=0;left=0;bottom=0;right=0;editable=1;overflow=hidden;whiteSpace=wrap;html=1;fontSize=16;" vertex="1" parent="BXHwt35HYGlDsFWXdQw4-47">
          <mxGeometry width="30" height="39" as="geometry">
            <mxRectangle width="30" height="39" as="alternateBounds" />
          </mxGeometry>
        </mxCell>
        <mxCell id="BXHwt35HYGlDsFWXdQw4-49" value="category_id" style="shape=partialRectangle;connectable=0;fillColor=none;top=0;left=0;bottom=0;right=0;align=left;spacingLeft=6;overflow=hidden;whiteSpace=wrap;html=1;fontSize=16;" vertex="1" parent="BXHwt35HYGlDsFWXdQw4-47">
          <mxGeometry x="30" width="150" height="39" as="geometry">
            <mxRectangle width="150" height="39" as="alternateBounds" />
          </mxGeometry>
        </mxCell>
        <mxCell id="BXHwt35HYGlDsFWXdQw4-50" value="" style="shape=tableRow;horizontal=0;startSize=0;swimlaneHead=0;swimlaneBody=0;fillColor=none;collapsible=0;dropTarget=0;points=[[0,0.5],[1,0.5]];portConstraint=eastwest;top=0;left=0;right=0;bottom=0;fontSize=16;" vertex="1" parent="BXHwt35HYGlDsFWXdQw4-34">
          <mxGeometry y="225" width="180" height="39" as="geometry" />
        </mxCell>
        <mxCell id="BXHwt35HYGlDsFWXdQw4-51" value="" style="shape=partialRectangle;connectable=0;fillColor=none;top=0;left=0;bottom=0;right=0;editable=1;overflow=hidden;whiteSpace=wrap;html=1;fontSize=16;" vertex="1" parent="BXHwt35HYGlDsFWXdQw4-50">
          <mxGeometry width="30" height="39" as="geometry">
            <mxRectangle width="30" height="39" as="alternateBounds" />
          </mxGeometry>
        </mxCell>
        <mxCell id="BXHwt35HYGlDsFWXdQw4-52" value="category" style="shape=partialRectangle;connectable=0;fillColor=none;top=0;left=0;bottom=0;right=0;align=left;spacingLeft=6;overflow=hidden;whiteSpace=wrap;html=1;fontSize=16;" vertex="1" parent="BXHwt35HYGlDsFWXdQw4-50">
          <mxGeometry x="30" width="150" height="39" as="geometry">
            <mxRectangle width="150" height="39" as="alternateBounds" />
          </mxGeometry>
        </mxCell>
        <mxCell id="BXHwt35HYGlDsFWXdQw4-53" value="" style="shape=tableRow;horizontal=0;startSize=0;swimlaneHead=0;swimlaneBody=0;fillColor=none;collapsible=0;dropTarget=0;points=[[0,0.5],[1,0.5]];portConstraint=eastwest;top=0;left=0;right=0;bottom=0;fontSize=16;" vertex="1" parent="BXHwt35HYGlDsFWXdQw4-34">
          <mxGeometry y="264" width="180" height="39" as="geometry" />
        </mxCell>
        <mxCell id="BXHwt35HYGlDsFWXdQw4-54" value="" style="shape=partialRectangle;connectable=0;fillColor=none;top=0;left=0;bottom=0;right=0;editable=1;overflow=hidden;whiteSpace=wrap;html=1;fontSize=16;" vertex="1" parent="BXHwt35HYGlDsFWXdQw4-53">
          <mxGeometry width="30" height="39" as="geometry">
            <mxRectangle width="30" height="39" as="alternateBounds" />
          </mxGeometry>
        </mxCell>
        <mxCell id="BXHwt35HYGlDsFWXdQw4-55" value="subcategory" style="shape=partialRectangle;connectable=0;fillColor=none;top=0;left=0;bottom=0;right=0;align=left;spacingLeft=6;overflow=hidden;whiteSpace=wrap;html=1;fontSize=16;" vertex="1" parent="BXHwt35HYGlDsFWXdQw4-53">
          <mxGeometry x="30" width="150" height="39" as="geometry">
            <mxRectangle width="150" height="39" as="alternateBounds" />
          </mxGeometry>
        </mxCell>
        <mxCell id="BXHwt35HYGlDsFWXdQw4-56" value="" style="shape=tableRow;horizontal=0;startSize=0;swimlaneHead=0;swimlaneBody=0;fillColor=none;collapsible=0;dropTarget=0;points=[[0,0.5],[1,0.5]];portConstraint=eastwest;top=0;left=0;right=0;bottom=0;fontSize=16;" vertex="1" parent="BXHwt35HYGlDsFWXdQw4-34">
          <mxGeometry y="303" width="180" height="39" as="geometry" />
        </mxCell>
        <mxCell id="BXHwt35HYGlDsFWXdQw4-57" value="" style="shape=partialRectangle;connectable=0;fillColor=none;top=0;left=0;bottom=0;right=0;editable=1;overflow=hidden;whiteSpace=wrap;html=1;fontSize=16;" vertex="1" parent="BXHwt35HYGlDsFWXdQw4-56">
          <mxGeometry width="30" height="39" as="geometry">
            <mxRectangle width="30" height="39" as="alternateBounds" />
          </mxGeometry>
        </mxCell>
        <mxCell id="BXHwt35HYGlDsFWXdQw4-58" value="maintenance" style="shape=partialRectangle;connectable=0;fillColor=none;top=0;left=0;bottom=0;right=0;align=left;spacingLeft=6;overflow=hidden;whiteSpace=wrap;html=1;fontSize=16;" vertex="1" parent="BXHwt35HYGlDsFWXdQw4-56">
          <mxGeometry x="30" width="150" height="39" as="geometry">
            <mxRectangle width="150" height="39" as="alternateBounds" />
          </mxGeometry>
        </mxCell>
        <mxCell id="BXHwt35HYGlDsFWXdQw4-59" value="" style="shape=tableRow;horizontal=0;startSize=0;swimlaneHead=0;swimlaneBody=0;fillColor=none;collapsible=0;dropTarget=0;points=[[0,0.5],[1,0.5]];portConstraint=eastwest;top=0;left=0;right=0;bottom=0;fontSize=16;" vertex="1" parent="BXHwt35HYGlDsFWXdQw4-34">
          <mxGeometry y="342" width="180" height="39" as="geometry" />
        </mxCell>
        <mxCell id="BXHwt35HYGlDsFWXdQw4-60" value="" style="shape=partialRectangle;connectable=0;fillColor=none;top=0;left=0;bottom=0;right=0;editable=1;overflow=hidden;whiteSpace=wrap;html=1;fontSize=16;" vertex="1" parent="BXHwt35HYGlDsFWXdQw4-59">
          <mxGeometry width="30" height="39" as="geometry">
            <mxRectangle width="30" height="39" as="alternateBounds" />
          </mxGeometry>
        </mxCell>
        <mxCell id="BXHwt35HYGlDsFWXdQw4-61" value="cost" style="shape=partialRectangle;connectable=0;fillColor=none;top=0;left=0;bottom=0;right=0;align=left;spacingLeft=6;overflow=hidden;whiteSpace=wrap;html=1;fontSize=16;" vertex="1" parent="BXHwt35HYGlDsFWXdQw4-59">
          <mxGeometry x="30" width="150" height="39" as="geometry">
            <mxRectangle width="150" height="39" as="alternateBounds" />
          </mxGeometry>
        </mxCell>
        <mxCell id="BXHwt35HYGlDsFWXdQw4-62" value="" style="shape=tableRow;horizontal=0;startSize=0;swimlaneHead=0;swimlaneBody=0;fillColor=none;collapsible=0;dropTarget=0;points=[[0,0.5],[1,0.5]];portConstraint=eastwest;top=0;left=0;right=0;bottom=0;fontSize=16;" vertex="1" parent="BXHwt35HYGlDsFWXdQw4-34">
          <mxGeometry y="381" width="180" height="39" as="geometry" />
        </mxCell>
        <mxCell id="BXHwt35HYGlDsFWXdQw4-63" value="" style="shape=partialRectangle;connectable=0;fillColor=none;top=0;left=0;bottom=0;right=0;editable=1;overflow=hidden;whiteSpace=wrap;html=1;fontSize=16;" vertex="1" parent="BXHwt35HYGlDsFWXdQw4-62">
          <mxGeometry width="30" height="39" as="geometry">
            <mxRectangle width="30" height="39" as="alternateBounds" />
          </mxGeometry>
        </mxCell>
        <mxCell id="BXHwt35HYGlDsFWXdQw4-64" value="product_line" style="shape=partialRectangle;connectable=0;fillColor=none;top=0;left=0;bottom=0;right=0;align=left;spacingLeft=6;overflow=hidden;whiteSpace=wrap;html=1;fontSize=16;" vertex="1" parent="BXHwt35HYGlDsFWXdQw4-62">
          <mxGeometry x="30" width="150" height="39" as="geometry">
            <mxRectangle width="150" height="39" as="alternateBounds" />
          </mxGeometry>
        </mxCell>
        <mxCell id="BXHwt35HYGlDsFWXdQw4-65" value="" style="shape=tableRow;horizontal=0;startSize=0;swimlaneHead=0;swimlaneBody=0;fillColor=none;collapsible=0;dropTarget=0;points=[[0,0.5],[1,0.5]];portConstraint=eastwest;top=0;left=0;right=0;bottom=0;fontSize=16;" vertex="1" parent="BXHwt35HYGlDsFWXdQw4-34">
          <mxGeometry y="420" width="180" height="39" as="geometry" />
        </mxCell>
        <mxCell id="BXHwt35HYGlDsFWXdQw4-66" value="" style="shape=partialRectangle;connectable=0;fillColor=none;top=0;left=0;bottom=0;right=0;editable=1;overflow=hidden;whiteSpace=wrap;html=1;fontSize=16;" vertex="1" parent="BXHwt35HYGlDsFWXdQw4-65">
          <mxGeometry width="30" height="39" as="geometry">
            <mxRectangle width="30" height="39" as="alternateBounds" />
          </mxGeometry>
        </mxCell>
        <mxCell id="BXHwt35HYGlDsFWXdQw4-67" value="start_date" style="shape=partialRectangle;connectable=0;fillColor=none;top=0;left=0;bottom=0;right=0;align=left;spacingLeft=6;overflow=hidden;whiteSpace=wrap;html=1;fontSize=16;" vertex="1" parent="BXHwt35HYGlDsFWXdQw4-65">
          <mxGeometry x="30" width="150" height="39" as="geometry">
            <mxRectangle width="150" height="39" as="alternateBounds" />
          </mxGeometry>
        </mxCell>
        <mxCell id="BXHwt35HYGlDsFWXdQw4-68" value="gold.fact_sales" style="shape=table;startSize=30;container=1;collapsible=1;childLayout=tableLayout;fixedRows=1;rowLines=0;fontStyle=1;align=center;resizeLast=1;html=1;rounded=1;fillColor=#dae8fc;strokeColor=#6c8ebf;fontSize=16;" vertex="1" parent="1">
          <mxGeometry x="330" y="80" width="180" height="381" as="geometry" />
        </mxCell>
        <mxCell id="BXHwt35HYGlDsFWXdQw4-72" value="" style="shape=tableRow;horizontal=0;startSize=0;swimlaneHead=0;swimlaneBody=0;fillColor=none;collapsible=0;dropTarget=0;points=[[0,0.5],[1,0.5]];portConstraint=eastwest;top=0;left=0;right=0;bottom=0;fontSize=16;" vertex="1" parent="BXHwt35HYGlDsFWXdQw4-68">
          <mxGeometry y="30" width="180" height="39" as="geometry" />
        </mxCell>
        <mxCell id="BXHwt35HYGlDsFWXdQw4-73" value="" style="shape=partialRectangle;connectable=0;fillColor=none;top=0;left=0;bottom=0;right=0;editable=1;overflow=hidden;whiteSpace=wrap;html=1;fontSize=16;" vertex="1" parent="BXHwt35HYGlDsFWXdQw4-72">
          <mxGeometry width="50" height="39" as="geometry">
            <mxRectangle width="50" height="39" as="alternateBounds" />
          </mxGeometry>
        </mxCell>
        <mxCell id="BXHwt35HYGlDsFWXdQw4-74" value="order_number" style="shape=partialRectangle;connectable=0;fillColor=none;top=0;left=0;bottom=0;right=0;align=left;spacingLeft=6;overflow=hidden;whiteSpace=wrap;html=1;fontSize=16;" vertex="1" parent="BXHwt35HYGlDsFWXdQw4-72">
          <mxGeometry x="50" width="130" height="39" as="geometry">
            <mxRectangle width="130" height="39" as="alternateBounds" />
          </mxGeometry>
        </mxCell>
        <mxCell id="BXHwt35HYGlDsFWXdQw4-75" value="" style="shape=tableRow;horizontal=0;startSize=0;swimlaneHead=0;swimlaneBody=0;fillColor=none;collapsible=0;dropTarget=0;points=[[0,0.5],[1,0.5]];portConstraint=eastwest;top=0;left=0;right=0;bottom=0;fontSize=16;" vertex="1" parent="BXHwt35HYGlDsFWXdQw4-68">
          <mxGeometry y="69" width="180" height="39" as="geometry" />
        </mxCell>
        <mxCell id="BXHwt35HYGlDsFWXdQw4-76" value="&lt;b&gt;FK1&lt;/b&gt;" style="shape=partialRectangle;connectable=0;fillColor=none;top=0;left=0;bottom=0;right=0;editable=1;overflow=hidden;whiteSpace=wrap;html=1;fontSize=16;" vertex="1" parent="BXHwt35HYGlDsFWXdQw4-75">
          <mxGeometry width="50" height="39" as="geometry">
            <mxRectangle width="50" height="39" as="alternateBounds" />
          </mxGeometry>
        </mxCell>
        <mxCell id="BXHwt35HYGlDsFWXdQw4-77" value="product_key" style="shape=partialRectangle;connectable=0;fillColor=none;top=0;left=0;bottom=0;right=0;align=left;spacingLeft=6;overflow=hidden;whiteSpace=wrap;html=1;fontSize=16;" vertex="1" parent="BXHwt35HYGlDsFWXdQw4-75">
          <mxGeometry x="50" width="130" height="39" as="geometry">
            <mxRectangle width="130" height="39" as="alternateBounds" />
          </mxGeometry>
        </mxCell>
        <mxCell id="BXHwt35HYGlDsFWXdQw4-78" value="" style="shape=tableRow;horizontal=0;startSize=0;swimlaneHead=0;swimlaneBody=0;fillColor=none;collapsible=0;dropTarget=0;points=[[0,0.5],[1,0.5]];portConstraint=eastwest;top=0;left=0;right=0;bottom=0;fontSize=16;" vertex="1" parent="BXHwt35HYGlDsFWXdQw4-68">
          <mxGeometry y="108" width="180" height="39" as="geometry" />
        </mxCell>
        <mxCell id="BXHwt35HYGlDsFWXdQw4-79" value="&lt;b&gt;FK2&lt;/b&gt;" style="shape=partialRectangle;connectable=0;fillColor=none;top=0;left=0;bottom=0;right=0;editable=1;overflow=hidden;whiteSpace=wrap;html=1;fontSize=16;" vertex="1" parent="BXHwt35HYGlDsFWXdQw4-78">
          <mxGeometry width="50" height="39" as="geometry">
            <mxRectangle width="50" height="39" as="alternateBounds" />
          </mxGeometry>
        </mxCell>
        <mxCell id="BXHwt35HYGlDsFWXdQw4-80" value="customer_key" style="shape=partialRectangle;connectable=0;fillColor=none;top=0;left=0;bottom=0;right=0;align=left;spacingLeft=6;overflow=hidden;whiteSpace=wrap;html=1;fontSize=16;" vertex="1" parent="BXHwt35HYGlDsFWXdQw4-78">
          <mxGeometry x="50" width="130" height="39" as="geometry">
            <mxRectangle width="130" height="39" as="alternateBounds" />
          </mxGeometry>
        </mxCell>
        <mxCell id="BXHwt35HYGlDsFWXdQw4-81" value="" style="shape=tableRow;horizontal=0;startSize=0;swimlaneHead=0;swimlaneBody=0;fillColor=none;collapsible=0;dropTarget=0;points=[[0,0.5],[1,0.5]];portConstraint=eastwest;top=0;left=0;right=0;bottom=0;fontSize=16;" vertex="1" parent="BXHwt35HYGlDsFWXdQw4-68">
          <mxGeometry y="147" width="180" height="39" as="geometry" />
        </mxCell>
        <mxCell id="BXHwt35HYGlDsFWXdQw4-82" value="" style="shape=partialRectangle;connectable=0;fillColor=none;top=0;left=0;bottom=0;right=0;editable=1;overflow=hidden;whiteSpace=wrap;html=1;fontSize=16;" vertex="1" parent="BXHwt35HYGlDsFWXdQw4-81">
          <mxGeometry width="50" height="39" as="geometry">
            <mxRectangle width="50" height="39" as="alternateBounds" />
          </mxGeometry>
        </mxCell>
        <mxCell id="BXHwt35HYGlDsFWXdQw4-83" value="order_date" style="shape=partialRectangle;connectable=0;fillColor=none;top=0;left=0;bottom=0;right=0;align=left;spacingLeft=6;overflow=hidden;whiteSpace=wrap;html=1;fontSize=16;" vertex="1" parent="BXHwt35HYGlDsFWXdQw4-81">
          <mxGeometry x="50" width="130" height="39" as="geometry">
            <mxRectangle width="130" height="39" as="alternateBounds" />
          </mxGeometry>
        </mxCell>
        <mxCell id="BXHwt35HYGlDsFWXdQw4-84" value="" style="shape=tableRow;horizontal=0;startSize=0;swimlaneHead=0;swimlaneBody=0;fillColor=none;collapsible=0;dropTarget=0;points=[[0,0.5],[1,0.5]];portConstraint=eastwest;top=0;left=0;right=0;bottom=0;fontSize=16;" vertex="1" parent="BXHwt35HYGlDsFWXdQw4-68">
          <mxGeometry y="186" width="180" height="39" as="geometry" />
        </mxCell>
        <mxCell id="BXHwt35HYGlDsFWXdQw4-85" value="" style="shape=partialRectangle;connectable=0;fillColor=none;top=0;left=0;bottom=0;right=0;editable=1;overflow=hidden;whiteSpace=wrap;html=1;fontSize=16;" vertex="1" parent="BXHwt35HYGlDsFWXdQw4-84">
          <mxGeometry width="50" height="39" as="geometry">
            <mxRectangle width="50" height="39" as="alternateBounds" />
          </mxGeometry>
        </mxCell>
        <mxCell id="BXHwt35HYGlDsFWXdQw4-86" value="shipping_date" style="shape=partialRectangle;connectable=0;fillColor=none;top=0;left=0;bottom=0;right=0;align=left;spacingLeft=6;overflow=hidden;whiteSpace=wrap;html=1;fontSize=16;" vertex="1" parent="BXHwt35HYGlDsFWXdQw4-84">
          <mxGeometry x="50" width="130" height="39" as="geometry">
            <mxRectangle width="130" height="39" as="alternateBounds" />
          </mxGeometry>
        </mxCell>
        <mxCell id="BXHwt35HYGlDsFWXdQw4-87" value="" style="shape=tableRow;horizontal=0;startSize=0;swimlaneHead=0;swimlaneBody=0;fillColor=none;collapsible=0;dropTarget=0;points=[[0,0.5],[1,0.5]];portConstraint=eastwest;top=0;left=0;right=0;bottom=0;fontSize=16;" vertex="1" parent="BXHwt35HYGlDsFWXdQw4-68">
          <mxGeometry y="225" width="180" height="39" as="geometry" />
        </mxCell>
        <mxCell id="BXHwt35HYGlDsFWXdQw4-88" value="" style="shape=partialRectangle;connectable=0;fillColor=none;top=0;left=0;bottom=0;right=0;editable=1;overflow=hidden;whiteSpace=wrap;html=1;fontSize=16;" vertex="1" parent="BXHwt35HYGlDsFWXdQw4-87">
          <mxGeometry width="50" height="39" as="geometry">
            <mxRectangle width="50" height="39" as="alternateBounds" />
          </mxGeometry>
        </mxCell>
        <mxCell id="BXHwt35HYGlDsFWXdQw4-89" value="due_date" style="shape=partialRectangle;connectable=0;fillColor=none;top=0;left=0;bottom=0;right=0;align=left;spacingLeft=6;overflow=hidden;whiteSpace=wrap;html=1;fontSize=16;" vertex="1" parent="BXHwt35HYGlDsFWXdQw4-87">
          <mxGeometry x="50" width="130" height="39" as="geometry">
            <mxRectangle width="130" height="39" as="alternateBounds" />
          </mxGeometry>
        </mxCell>
        <mxCell id="BXHwt35HYGlDsFWXdQw4-90" value="" style="shape=tableRow;horizontal=0;startSize=0;swimlaneHead=0;swimlaneBody=0;fillColor=none;collapsible=0;dropTarget=0;points=[[0,0.5],[1,0.5]];portConstraint=eastwest;top=0;left=0;right=0;bottom=0;fontSize=16;" vertex="1" parent="BXHwt35HYGlDsFWXdQw4-68">
          <mxGeometry y="264" width="180" height="39" as="geometry" />
        </mxCell>
        <mxCell id="BXHwt35HYGlDsFWXdQw4-91" value="" style="shape=partialRectangle;connectable=0;fillColor=none;top=0;left=0;bottom=0;right=0;editable=1;overflow=hidden;whiteSpace=wrap;html=1;fontSize=16;" vertex="1" parent="BXHwt35HYGlDsFWXdQw4-90">
          <mxGeometry width="50" height="39" as="geometry">
            <mxRectangle width="50" height="39" as="alternateBounds" />
          </mxGeometry>
        </mxCell>
        <mxCell id="BXHwt35HYGlDsFWXdQw4-92" value="sales_amount" style="shape=partialRectangle;connectable=0;fillColor=none;top=0;left=0;bottom=0;right=0;align=left;spacingLeft=6;overflow=hidden;whiteSpace=wrap;html=1;fontSize=16;" vertex="1" parent="BXHwt35HYGlDsFWXdQw4-90">
          <mxGeometry x="50" width="130" height="39" as="geometry">
            <mxRectangle width="130" height="39" as="alternateBounds" />
          </mxGeometry>
        </mxCell>
        <mxCell id="BXHwt35HYGlDsFWXdQw4-93" value="" style="shape=tableRow;horizontal=0;startSize=0;swimlaneHead=0;swimlaneBody=0;fillColor=none;collapsible=0;dropTarget=0;points=[[0,0.5],[1,0.5]];portConstraint=eastwest;top=0;left=0;right=0;bottom=0;fontSize=16;" vertex="1" parent="BXHwt35HYGlDsFWXdQw4-68">
          <mxGeometry y="303" width="180" height="39" as="geometry" />
        </mxCell>
        <mxCell id="BXHwt35HYGlDsFWXdQw4-94" value="" style="shape=partialRectangle;connectable=0;fillColor=none;top=0;left=0;bottom=0;right=0;editable=1;overflow=hidden;whiteSpace=wrap;html=1;fontSize=16;" vertex="1" parent="BXHwt35HYGlDsFWXdQw4-93">
          <mxGeometry width="50" height="39" as="geometry">
            <mxRectangle width="50" height="39" as="alternateBounds" />
          </mxGeometry>
        </mxCell>
        <mxCell id="BXHwt35HYGlDsFWXdQw4-95" value="quantity" style="shape=partialRectangle;connectable=0;fillColor=none;top=0;left=0;bottom=0;right=0;align=left;spacingLeft=6;overflow=hidden;whiteSpace=wrap;html=1;fontSize=16;" vertex="1" parent="BXHwt35HYGlDsFWXdQw4-93">
          <mxGeometry x="50" width="130" height="39" as="geometry">
            <mxRectangle width="130" height="39" as="alternateBounds" />
          </mxGeometry>
        </mxCell>
        <mxCell id="BXHwt35HYGlDsFWXdQw4-96" value="" style="shape=tableRow;horizontal=0;startSize=0;swimlaneHead=0;swimlaneBody=0;fillColor=none;collapsible=0;dropTarget=0;points=[[0,0.5],[1,0.5]];portConstraint=eastwest;top=0;left=0;right=0;bottom=0;fontSize=16;" vertex="1" parent="BXHwt35HYGlDsFWXdQw4-68">
          <mxGeometry y="342" width="180" height="39" as="geometry" />
        </mxCell>
        <mxCell id="BXHwt35HYGlDsFWXdQw4-97" value="" style="shape=partialRectangle;connectable=0;fillColor=none;top=0;left=0;bottom=0;right=0;editable=1;overflow=hidden;whiteSpace=wrap;html=1;fontSize=16;" vertex="1" parent="BXHwt35HYGlDsFWXdQw4-96">
          <mxGeometry width="50" height="39" as="geometry">
            <mxRectangle width="50" height="39" as="alternateBounds" />
          </mxGeometry>
        </mxCell>
        <mxCell id="BXHwt35HYGlDsFWXdQw4-98" value="price" style="shape=partialRectangle;connectable=0;fillColor=none;top=0;left=0;bottom=0;right=0;align=left;spacingLeft=6;overflow=hidden;whiteSpace=wrap;html=1;fontSize=16;" vertex="1" parent="BXHwt35HYGlDsFWXdQw4-96">
          <mxGeometry x="50" width="130" height="39" as="geometry">
            <mxRectangle width="130" height="39" as="alternateBounds" />
          </mxGeometry>
        </mxCell>
        <mxCell id="BXHwt35HYGlDsFWXdQw4-102" value="" style="edgeStyle=entityRelationEdgeStyle;fontSize=12;html=1;endArrow=ERzeroToMany;startArrow=ERmandOne;rounded=0;exitX=1;exitY=0.5;exitDx=0;exitDy=0;entryX=0;entryY=0.5;entryDx=0;entryDy=0;" edge="1" parent="1" source="BXHwt35HYGlDsFWXdQw4-4" target="BXHwt35HYGlDsFWXdQw4-78">
          <mxGeometry width="100" height="100" relative="1" as="geometry">
            <mxPoint x="220" y="310" as="sourcePoint" />
            <mxPoint x="320" y="210" as="targetPoint" />
          </mxGeometry>
        </mxCell>
        <mxCell id="BXHwt35HYGlDsFWXdQw4-103" value="" style="edgeStyle=entityRelationEdgeStyle;fontSize=12;html=1;endArrow=ERzeroToMany;startArrow=ERmandOne;rounded=0;exitX=0;exitY=0.5;exitDx=0;exitDy=0;entryX=1;entryY=0.5;entryDx=0;entryDy=0;" edge="1" parent="1" source="BXHwt35HYGlDsFWXdQw4-35" target="BXHwt35HYGlDsFWXdQw4-75">
          <mxGeometry width="100" height="100" relative="1" as="geometry">
            <mxPoint x="520" y="220" as="sourcePoint" />
            <mxPoint x="630" y="298" as="targetPoint" />
          </mxGeometry>
        </mxCell>
        <mxCell id="BXHwt35HYGlDsFWXdQw4-104" value="&lt;h1 style=&quot;margin-top: 0px;&quot;&gt;Sales Calculation&lt;/h1&gt;&lt;p&gt;.&lt;font style=&quot;font-size: 16px;&quot;&gt;Sales = Quantity * Price&lt;/font&gt;&lt;/p&gt;" style="text;html=1;whiteSpace=wrap;overflow=hidden;rounded=0;" vertex="1" parent="1">
          <mxGeometry x="410" y="500" width="180" height="120" as="geometry" />
        </mxCell>
        <mxCell id="BXHwt35HYGlDsFWXdQw4-105" value="" style="endArrow=none;dashed=1;html=1;dashPattern=1 3;strokeWidth=2;rounded=0;entryX=0.729;entryY=0.923;entryDx=0;entryDy=0;entryPerimeter=0;exitX=0.667;exitY=0.083;exitDx=0;exitDy=0;exitPerimeter=0;" edge="1" parent="1" source="BXHwt35HYGlDsFWXdQw4-104" target="BXHwt35HYGlDsFWXdQw4-90">
          <mxGeometry width="50" height="50" relative="1" as="geometry">
            <mxPoint x="509.99544794188864" y="510" as="sourcePoint" />
            <mxPoint x="460.7944794188861" y="383" as="targetPoint" />
          </mxGeometry>
        </mxCell>
      </root>
    </mxGraphModel>
  </diagram>
</mxfile>
